{"title":"Cardinal Burns S01-E01","uid":8700198,"size":291485448,"categoryP":"video","categoryS":"tv_shows","magnet":"?xt=urn:btih:aa176b0fb7cfb7f71666ea58b81336aff90bc554&amp;dn=Cardinal+Burns+S01-E01&amp;tr=udp%3A%2F%2Ftracker.openbittorrent.com%3A80&amp;tr=udp%3A%2F%2Fopen.demonii.com%3A1337&amp;tr=udp%3A%2F%2Ftracker.coppersurfer.tk%3A6969&amp;tr=udp%3A%2F%2Fexodus.desync.com%3A6969","seeders":1,"leechers":0,"uploader":"Cerebral222","files":-1,"time":1374046560,"description":"A neat comedy from the UK I thought I'd share.\nCaptured with a basic capture card, so it's not HD, but it's not too bad.\n\nInfo:\n &lt;a href=&quot;\nhttp://en.wikipedia.org/wiki/Cardinal_Burns&quot; rel=&quot;nofollow&quot; target=&quot;_NEW&quot;&gt;\nhttp://en.wikipedia.org/wiki/Cardinal_Burns&lt;/a&gt;\n\nScreens:\n\n\n &lt;a href=&quot;\nhttp://bayimg.com/panLjaAem&quot; rel=&quot;nofollow&quot; target=&quot;_NEW&quot;&gt;\nhttp://bayimg.com/panLjaAem&lt;/a&gt;\n\nFormat                                   : AVI\nFormat/Info                              : Audio Video Interleave\nFile size                                : 278 MiB\nDuration                                 : 23mn 42s\nOverall bit rate                         : 1 640 Kbps\nWriting application                      : Lavf53.31.100\n\nVideo\nID                                       : 0\nFormat                                   : MPEG-4 Visual\nFormat profile                           : Simple@L1\nFormat settings, BVOP                    : No\nFormat settings, QPel                    : No\nFormat settings, GMC                     : No warppoints\nFormat settings, Matrix                  : Default (H.263)\nCodec ID                                 : DX50\nCodec ID/Hint                            : DivX 5\nDuration                                 : 23mn 42s\nBit rate                                 : 1 499 Kbps\nWidth                                    : 720 pixels\nHeight                                   : 404 pixels\nDisplay aspect ratio                     : 4:3\nFrame rate                               : 25.000 fps\nColor space                              : YUV\nChroma subsampling                       : 4:2:0\nBit depth                                : 8 bits\nScan type                                : Progressive\nCompression mode                         : Lossy\nBits/(Pixel*Frame)                       : 0.206\nStream size                              : 254 MiB (91%)\nWriting library                          : Lavc53.60.100\n\nAudio\nID                                       : 1\nFormat                                   : MPEG Audio\nFormat version                           : Version 1\nFormat profile                           : Layer 3\nMode                                     : Joint stereo\nCodec ID                                 : 55\nCodec ID/Hint                            : MP3\nDuration                                 : 23mn 42s\nBit rate mode                            : Constant\nBit rate                                 : 128 Kbps\nChannel(s)                               : 2 channels\nSampling rate                            : 48.0 KHz\nCompression mode                         : Lossy\nStream size                              : 21.7 MiB (8%)\nAlignment                                : Aligned on interleaves\n","torrent":{"xt":"urn:btih:aa176b0fb7cfb7f71666ea58b81336aff90bc554","amp;dn":"Cardinal+Burns+S01-E01","amp;tr":["udp%3A%2F%2Ftracker.openbittorrent.com%3A80","udp%3A%2F%2Fopen.demonii.com%3A1337","udp%3A%2F%2Ftracker.coppersurfer.tk%3A6969","udp%3A%2F%2Fexodus.desync.com%3A6969"],"infoHash":"aa176b0fb7cfb7f71666ea58b81336aff90bc554","infoHashBuffer":{"type":"Buffer","data":[170,23,107,15,183,207,183,247,22,102,234,88,184,19,54,175,249,11,197,84]},"announce":[],"urlList":[]}}